<svg width="30" height="38" viewBox="0 0 30 38" fill="none" xmlns="http://www.w3.org/2000/svg">
<path d="M22.7979 36.9637C22.7979 37.2386 22.6887 37.5022 22.4944 37.6965C22.3001 37.8908 22.0365 38 21.7616 38H7.94492C7.67009 38 7.40652 37.8908 7.21218 37.6965C7.01785 37.5022 6.90867 37.2386 6.90867 36.9637C6.90867 36.6889 7.01785 36.4253 7.21218 36.231C7.40652 36.0367 7.67009 35.9275 7.94492 35.9275H21.7616C22.0365 35.9275 22.3001 36.0367 22.4944 36.231C22.6887 36.4253 22.7979 36.6889 22.7979 36.9637ZM29.7063 14.857C29.7127 17.1076 29.204 19.3298 28.2191 21.3535C27.2342 23.3771 25.7992 25.1486 24.0241 26.5321C23.6451 26.8271 23.3378 27.2041 23.1255 27.6348C22.9131 28.0656 22.8011 28.5389 22.7979 29.0191V30.0554C22.7979 30.6967 22.5432 31.3117 22.0897 31.7651C21.6363 32.2186 21.0213 32.4733 20.38 32.4733H9.3266C8.68532 32.4733 8.07031 32.2186 7.61686 31.7651C7.16341 31.3117 6.90867 30.6967 6.90867 30.0554V29.0191C6.90747 28.5428 6.79802 28.0729 6.58858 27.6451C6.37914 27.2172 6.07519 26.8425 5.69971 26.5494C3.93064 25.1747 2.49797 23.4152 1.51044 21.4042C0.522906 19.3932 0.0064632 17.1837 0.000307097 14.9433C-0.0515056 6.8951 6.45963 0.193993 14.4906 0.00401277C16.4708 -0.0419983 18.4403 0.308067 20.2833 1.03366C22.1264 1.75925 23.8059 2.84574 25.2233 4.22934C26.6407 5.61294 27.7674 7.26577 28.5372 9.09079C29.307 10.9158 29.7045 12.8762 29.7063 14.857ZM27.6338 14.857C27.6319 13.1528 27.2897 11.4662 26.6273 9.89606C25.9648 8.32592 24.9954 6.90391 23.776 5.71345C22.5566 4.52299 21.1117 3.58806 19.5261 2.96353C17.9405 2.33899 16.2461 2.03742 14.5424 2.07652C7.63405 2.24923 2.03827 8.00044 2.07282 14.9261C2.07896 16.8556 2.52372 18.7586 3.37346 20.491C4.22321 22.2234 5.4557 23.7399 6.97775 24.9259C7.60256 25.4095 8.10809 26.0299 8.45541 26.7396C8.80274 27.4492 8.98261 28.2291 8.98118 29.0191V30.0554C8.98118 30.147 9.01757 30.2349 9.08235 30.2996C9.14713 30.3644 9.23499 30.4008 9.3266 30.4008H13.817V22.1971L8.60122 16.964C8.40884 16.7717 8.30076 16.5107 8.30076 16.2387C8.30076 15.9666 8.40884 15.7057 8.60122 15.5133C8.7936 15.3209 9.05453 15.2128 9.3266 15.2128C9.59867 15.2128 9.85959 15.3209 10.052 15.5133L14.8533 20.2973L19.6546 15.5133C19.847 15.3209 20.1079 15.2128 20.38 15.2128C20.652 15.2128 20.913 15.3209 21.1054 15.5133C21.2977 15.7057 21.4058 15.9666 21.4058 16.2387C21.4058 16.5107 21.2977 16.7717 21.1054 16.964L15.8895 22.1971V30.4008H20.38C20.4716 30.4008 20.5594 30.3644 20.6242 30.2996C20.689 30.2349 20.7254 30.147 20.7254 30.0554V29.0191C20.7285 28.2256 20.9121 27.4432 21.2621 26.7311C21.6122 26.019 22.1197 25.3958 22.7461 24.9087C24.2728 23.7164 25.5069 22.1909 26.354 20.4489C27.2011 18.7068 27.6388 16.7941 27.6338 14.857Z" fill="#353431"/>
</svg>
