<svg width="22" height="44" viewBox="0 0 22 44" fill="none" xmlns="http://www.w3.org/2000/svg">
<path d="M11.8652 2.97561C13.5171 3.17074 15.6063 3.75609 15.6063 3.75609C15.7521 3.80487 15.8007 3.90243 15.8007 4.04878C15.8007 4.09756 15.7521 4.14635 15.7035 4.19513C15.7035 4.19513 15.0233 4.29268 14.1487 4.34146L14.3431 6.53658H14.4402C14.9261 6.53658 15.3634 6.92682 15.3634 7.41463L15.412 8H16.1408C18.1328 8 19.8819 9.65854 20.0277 11.6585L21.3881 33.3171C21.4853 35.2683 20.0277 36.8781 18.0842 36.8781H3.26535C1.32189 36.8781 -0.135714 35.2683 0.0100456 33.3171L1.66199 11.6098C1.80774 9.60975 3.55686 7.95122 5.5975 7.95122H5.98618L6.03477 7.36586C6.03477 6.87805 6.47205 6.4878 6.95792 6.4878H7.05509L7.24944 4.29268C6.37488 4.19512 5.69468 4.14634 5.69468 4.14634C5.64609 4.14634 5.5975 4.09755 5.5975 3.99999C5.5975 3.85365 5.69467 3.7561 5.79184 3.70732C5.79184 3.70732 7.88106 3.17074 9.63017 2.97561C9.43583 2.87805 9.24149 2.63415 9.24149 2.43902V1.31706C9.24149 0.926821 9.48443 0.487808 9.82453 0.292686C9.82453 0.292686 10.1646 0 10.6991 0C11.1364 0 11.5736 0.292686 11.5736 0.292686C11.9137 0.487808 12.1567 0.926821 12.1567 1.31706V2.43902C12.1567 2.63415 12.0109 2.82927 11.8652 2.97561ZM7.54096 12.4878H5.64609C5.35457 12.4878 5.11163 12.2439 5.11163 11.9024C5.11163 11.6098 5.35457 11.3171 5.64609 11.3171H15.8007C16.0922 11.3171 16.3351 11.561 16.3351 11.9024C16.3351 12.1951 16.0922 12.4878 15.8007 12.4878H14.0516L14.9261 15.3171C14.9747 15.4146 14.8775 15.5122 14.7804 15.5122H6.90934C6.81217 15.5122 6.71499 15.4146 6.76357 15.3171L7.54096 12.4878ZM5.88902 9.12194C4.18849 9.21951 2.6823 10.6829 2.58513 12.3902L1.07896 32.6342C0.933196 34.3902 2.29361 35.8049 4.04272 35.8049H17.404C19.1531 35.8049 20.5136 34.3902 20.4164 32.6342L19.2017 12.3902C19.1046 10.5854 17.5498 9.07318 15.7035 9.07318H15.5091L15.6063 11.3171H5.79184L5.88902 9.12194ZM8.8528 4.68293C8.5127 4.68293 8.22117 4.97561 8.22117 5.31707V5.41464C8.22117 5.7561 8.5127 6.04878 8.8528 6.04878H9.63017C9.97028 6.04878 10.2618 5.7561 10.2618 5.41464V5.31707C10.2618 4.97561 9.97028 4.68293 9.63017 4.68293H8.8528ZM11.768 4.68293C11.4279 4.68293 11.1364 4.97561 11.1364 5.31707V5.41464C11.1364 5.7561 11.4279 6.04878 11.768 6.04878H12.5454C12.8855 6.04878 13.177 5.7561 13.177 5.41464V5.31707C13.177 4.97561 12.8855 4.68293 12.5454 4.68293H11.768ZM10.6991 0.63414C10.4076 0.63414 10.1646 0.82926 10.1646 0.82926C9.97028 0.926821 9.77594 1.21952 9.77594 1.5122V2.24391C9.77594 2.39025 9.87312 2.58536 10.0675 2.63414C10.0675 2.63414 10.359 2.73171 10.6991 2.73171C10.9906 2.73171 11.3307 2.63414 11.3307 2.63414C11.4765 2.58536 11.6222 2.43903 11.6222 2.24391V1.5122C11.6222 1.2683 11.4279 0.975601 11.2335 0.82926C11.185 0.82926 10.9906 0.63414 10.6991 0.63414Z" fill="#FEFDFB"/>
<path d="M14.0028 34.4877C15.9948 34.9267 17.3067 35.8048 17.4038 36.7804C17.8897 36.6828 18.2784 37.0243 18.2784 37.5609V40.6341C18.91 40.5365 19.4445 40.9267 19.4445 41.6097V41.6585C19.4445 42.2926 18.9586 43.0243 18.327 43.2194C18.327 43.2194 16.8208 43.9999 10.7961 43.9999C4.77135 43.9999 3.16799 43.2194 3.16799 43.2194C2.53637 43.0243 2.05051 42.3414 2.05051 41.7072V41.6585C2.05051 41.0243 2.53637 40.5853 3.16799 40.6828V37.6097C3.16799 37.1219 3.55668 36.7804 4.04254 36.8292C4.04254 36.8292 4.09114 36.8292 4.18831 36.8292C4.2369 35.756 5.79166 34.878 8.02665 34.439C7.58937 34.0487 7.29785 33.5609 7.29785 33.0243C7.29785 31.7072 14.8774 31.7072 14.8774 33.0243C14.8288 33.5609 14.4887 34.0975 14.0028 34.4877Z" fill="#FEFDFB"/>
<path d="M15.4606 32.3903C15.4606 32.3903 13.8572 28.9269 12.2539 27.561C10.4562 26.0488 6.90936 25.3171 5.16025 23.8049L5.25741 23.4147C6.81218 24.8781 10.6505 25.7074 12.4968 27.2683C14.1002 28.6342 15.7035 32.0976 15.7035 32.0976L15.4606 32.3903Z" fill="#FEFDFB"/>
<path d="M6.32652 32.3903C6.32652 32.3903 7.92988 28.9269 9.53323 27.561C11.3309 26.0488 14.9263 25.3171 16.724 23.8049L16.6269 23.4147C15.0235 24.8781 11.1852 25.7074 9.2903 27.2683C7.63836 28.6342 6.08359 32.0976 6.08359 32.0976L6.32652 32.3903Z" fill="#FEFDFB"/>
<path d="M6.90909 15.5122C6.90909 19.561 4.6741 22.9268 4.6741 27.4146C4.6741 31.9025 6.71473 32.683 6.71473 32.683C6.8119 32.7317 7.00626 32.7805 7.15202 32.7805H14.5858C14.7315 32.7805 14.9259 32.7317 15.023 32.683C15.023 32.683 17.258 31.9025 17.258 27.4146C17.258 22.9268 14.8287 19.5122 14.8287 15.5122H6.90909Z" stroke="#FEFDFB" stroke-width="0.7"/>
<path d="M1.32205 31.6097H3.75138C4.23724 31.6097 4.62593 32 4.62593 32.5366V32.6341C4.62593 33.1219 5.01462 33.561 5.50048 33.561H7.15244" stroke="#FEFDFB" stroke-width="0.5" stroke-linecap="round"/>
<path d="M20.5622 31.7074H18.1328C17.647 31.7074 17.2583 32.0976 17.2583 32.6342C17.2583 33.122 16.8696 33.561 16.3837 33.561H14.7318" stroke="#FEFDFB" stroke-width="0.5" stroke-linecap="round"/>
</svg>
