<svg width="16" height="16" viewBox="0 0 16 16" fill="none" xmlns="http://www.w3.org/2000/svg">
<path d="M13.0313 11.9687C13.1012 12.0384 13.1567 12.1212 13.1945 12.2123C13.2324 12.3035 13.2519 12.4012 13.2519 12.5C13.2519 12.5987 13.2324 12.6964 13.1945 12.7876C13.1567 12.8787 13.1012 12.9615 13.0313 13.0312C12.8897 13.1709 12.6989 13.2492 12.5 13.2492C12.3012 13.2492 12.1103 13.1709 11.9688 13.0312L8.00001 9.06246L4.03126 13.0312C3.88973 13.1709 3.69887 13.2492 3.50001 13.2492C3.30115 13.2492 3.11029 13.1709 2.96876 13.0312C2.89884 12.9615 2.84336 12.8787 2.80551 12.7876C2.76765 12.6964 2.74817 12.5987 2.74817 12.5C2.74817 12.4012 2.76765 12.3035 2.80551 12.2123C2.84336 12.1212 2.89884 12.0384 2.96876 11.9687L6.93751 7.99996L2.96876 4.03121C2.82786 3.89031 2.74871 3.69922 2.74871 3.49996C2.74871 3.4013 2.76814 3.3036 2.8059 3.21245C2.84366 3.1213 2.899 3.03847 2.96876 2.96871C3.03853 2.89894 3.12135 2.8436 3.2125 2.80585C3.30365 2.76809 3.40135 2.74866 3.50001 2.74866C3.69927 2.74866 3.89036 2.82781 4.03126 2.96871L8.00001 6.93746L11.9688 2.96871C12.1097 2.82781 12.3008 2.74866 12.5 2.74866C12.6993 2.74866 12.8904 2.82781 13.0313 2.96871C13.1722 3.1096 13.2513 3.3007 13.2513 3.49996C13.2513 3.69922 13.1722 3.89031 13.0313 4.03121L9.06251 7.99996L13.0313 11.9687Z" fill="#353431"/>
</svg>
